<?xml version="1.0" encoding="UTF-8" standalone="no"?>
<!-- Created with Bouml (http://bouml.free.fr/) -->
<!DOCTYPE svg PUBLIC "-//W3C//DTD SVG 1.1//EN" "http://www.w3.org/Graphics/SVG/1.1/DTD/svg11.dtd">
<svg width="1552" height="749" version="1.1" xmlns="http://www.w3.org/2000/svg">
<g>
	<rect fill="#cbcbcb" stroke="none" stroke-opacity="1" x="626" y="146" width="3" height="197" />
	<rect fill="#cbcbcb" stroke="none" stroke-opacity="1" x="374" y="340" width="255" height="3" />
	<rect fill="#ffffc0" stroke="black" stroke-width="1" stroke-opacity="1" x="370" y="142" width="256" height="198" />
	<text font-family="Helvetica" font-size="8" fill="#000000" xml:space="preserve" font-weight="bold" text-anchor="middle" x="498" y="152">Entity</text>
	<line stroke="black" stroke-opacity="1" x1="370" y1="160" x2="626" y2="160" />
	<text font-family="Helvetica" font-size="8" fill="#000000" xml:space="preserve" font-weight="bold" x="374" y="170">-</text>
	<text font-family="Helvetica" font-size="8" fill="#000000" xml:space="preserve" x="386" y="170">name : string</text>
	<text font-family="Helvetica" font-size="8" fill="#000000" xml:space="preserve" font-weight="bold" x="374" y="186">-</text>
	<text font-family="Helvetica" font-size="8" fill="#000000" xml:space="preserve" x="386" y="186">design : char</text>
	<text font-family="Helvetica" font-size="8" fill="#000000" xml:space="preserve" font-weight="bold" x="374" y="202">-</text>
	<text font-family="Helvetica" font-size="8" fill="#000000" xml:space="preserve" x="386" y="202">lifepoints : int</text>
	<text font-family="Helvetica" font-size="8" fill="#000000" xml:space="preserve" font-weight="bold" x="374" y="218">-</text>
	<text font-family="Helvetica" font-size="8" fill="#000000" xml:space="preserve" x="386" y="218">base_lifepoints : int</text>
	<text font-family="Helvetica" font-size="8" fill="#000000" xml:space="preserve" font-weight="bold" x="374" y="234">-</text>
	<text font-family="Helvetica" font-size="8" fill="#000000" xml:space="preserve" x="386" y="234">helmet : EquipmentItem</text>
	<line stroke="black" stroke-opacity="1" x1="370" y1="242" x2="626" y2="242" />
	<text font-family="Helvetica" font-size="8" fill="#000000" xml:space="preserve" font-weight="bold" x="374" y="252">+</text>
	<text font-family="Helvetica" font-size="8" fill="#000000" xml:space="preserve" x="386" y="252">getRawAttackDamage() : float</text>
	<text font-family="Helvetica" font-size="8" fill="#000000" xml:space="preserve" font-weight="bold" x="374" y="268">+</text>
	<text font-family="Helvetica" font-size="8" fill="#000000" xml:space="preserve" x="386" y="268">getDamageOnEntity(raw_damage : float) : float</text>
	<text font-family="Helvetica" font-size="8" fill="#000000" xml:space="preserve" font-weight="bold" x="374" y="284">+</text>
	<text font-family="Helvetica" font-size="8" fill="#000000" xml:space="preserve" x="386" y="284">damage(damage_amount : float)</text>
	<text font-family="Helvetica" font-size="8" fill="#000000" xml:space="preserve" font-weight="bold" x="374" y="300">+</text>
	<text font-family="Helvetica" font-size="8" fill="#000000" xml:space="preserve" x="386" y="300">getStats() : Stats</text>
	<text font-family="Helvetica" font-size="8" fill="#000000" xml:space="preserve" font-weight="bold" x="374" y="316">+</text>
	<text font-family="Helvetica" font-size="8" fill="#000000" xml:space="preserve" x="386" y="316">heal(amount : int) : void</text>
	<text font-family="Helvetica" font-size="8" fill="#000000" xml:space="preserve" font-weight="bold" x="374" y="332">+</text>
	<text font-family="Helvetica" font-size="8" fill="#000000" xml:space="preserve" x="386" y="332">getAbilities() : IAbility</text>
</g>
<g>
	<rect fill="#cbcbcb" stroke="none" stroke-opacity="1" x="594" y="355" width="3" height="85" />
	<rect fill="#cbcbcb" stroke="none" stroke-opacity="1" x="406" y="437" width="191" height="3" />
	<rect fill="#ffffc0" stroke="black" stroke-width="1" stroke-opacity="1" x="402" y="351" width="192" height="86" />
	<text font-family="Helvetica" font-size="8" fill="#000000" xml:space="preserve" font-weight="bold" text-anchor="middle" x="498" y="361">Player</text>
	<line stroke="black" stroke-opacity="1" x1="402" y1="369" x2="594" y2="369" />
	<text font-family="Helvetica" font-size="8" fill="#000000" xml:space="preserve" font-weight="bold" x="406" y="379">-</text>
	<text font-family="Helvetica" font-size="8" fill="#000000" xml:space="preserve" x="418" y="379">experience : float</text>
	<text font-family="Helvetica" font-size="8" fill="#000000" xml:space="preserve" font-weight="bold" x="406" y="395">-</text>
	<text font-family="Helvetica" font-size="8" fill="#000000" xml:space="preserve" x="418" y="395">level : int</text>
	<text font-family="Helvetica" font-size="8" fill="#000000" xml:space="preserve" font-weight="bold" x="406" y="411">-</text>
	<text font-family="Helvetica" font-size="8" fill="#000000" xml:space="preserve" x="418" y="411">money : int</text>
	<line stroke="black" stroke-opacity="1" x1="402" y1="419" x2="594" y2="419" />
	<text font-family="Helvetica" font-size="8" fill="#000000" xml:space="preserve" font-weight="bold" x="406" y="429">+</text>
	<text font-family="Helvetica" font-size="8" fill="#000000" xml:space="preserve" x="418" y="429">equip(item : EquipmentItem) : bool</text>
</g>
<g>
	<rect fill="#cbcbcb" stroke="none" stroke-opacity="1" x="919" y="200" width="3" height="75" />
	<rect fill="#cbcbcb" stroke="none" stroke-opacity="1" x="839" y="272" width="83" height="3" />
	<rect fill="#ffffc0" stroke="black" stroke-width="1" stroke-opacity="1" x="835" y="196" width="84" height="76" />
	<text font-family="Helvetica" font-size="8" fill="#000000" xml:space="preserve" font-weight="bold" text-anchor="middle" x="877" y="206">Stats</text>
	<line stroke="black" stroke-opacity="1" x1="835" y1="214" x2="919" y2="214" />
	<text font-family="Helvetica" font-size="8" fill="#000000" xml:space="preserve" font-weight="bold" x="839" y="224">-</text>
	<text font-family="Helvetica" font-size="8" fill="#000000" xml:space="preserve" x="851" y="224">strength : int</text>
	<text font-family="Helvetica" font-size="8" fill="#000000" xml:space="preserve" font-weight="bold" x="839" y="240">-</text>
	<text font-family="Helvetica" font-size="8" fill="#000000" xml:space="preserve" x="851" y="240">speed : int</text>
	<text font-family="Helvetica" font-size="8" fill="#000000" xml:space="preserve" font-weight="bold" x="839" y="256">-</text>
	<text font-family="Helvetica" font-size="8" fill="#000000" xml:space="preserve" x="851" y="256">luck : int</text>
	<line stroke="black" stroke-opacity="1" x1="835" y1="264" x2="919" y2="264" />
</g>
<g>
	<rect fill="#cbcbcb" stroke="none" stroke-opacity="1" x="578" y="92" width="3" height="33" />
	<rect fill="#cbcbcb" stroke="none" stroke-opacity="1" x="494" y="122" width="87" height="3" />
	<rect fill="#ffffc0" stroke="black" stroke-width="1" stroke-opacity="1" x="490" y="88" width="88" height="34" />
	<text font-family="Helvetica" font-size="8" fill="#000000" xml:space="preserve" font-weight="bold" text-anchor="middle" x="534" y="98">EntitySquelette</text>
	<line stroke="black" stroke-opacity="1" x1="490" y1="106" x2="578" y2="106" />
	<line stroke="black" stroke-opacity="1" x1="490" y1="114" x2="578" y2="114" />
</g>
<g>
	<rect fill="#cbcbcb" stroke="none" stroke-opacity="1" x="1121" y="533" width="3" height="33" />
	<rect fill="#cbcbcb" stroke="none" stroke-opacity="1" x="1043" y="563" width="81" height="3" />
	<rect fill="#ffffc0" stroke="black" stroke-width="1" stroke-opacity="1" x="1039" y="529" width="82" height="34" />
	<text font-family="Helvetica" font-size="8" fill="#000000" xml:space="preserve" font-weight="bold" text-anchor="middle" x="1080" y="539">EquipmentFez</text>
	<line stroke="black" stroke-opacity="1" x1="1039" y1="547" x2="1121" y2="547" />
	<line stroke="black" stroke-opacity="1" x1="1039" y1="555" x2="1121" y2="555" />
</g>
<g>
	<rect fill="#cbcbcb" stroke="none" stroke-opacity="1" x="1391" y="320" width="3" height="33" />
	<rect fill="#cbcbcb" stroke="none" stroke-opacity="1" x="1267" y="350" width="127" height="3" />
	<rect fill="#ffffc0" stroke="black" stroke-width="1" stroke-opacity="1" x="1263" y="316" width="128" height="34" />
	<text font-family="Helvetica" font-size="8" fill="#000000" xml:space="preserve" font-weight="bold" text-anchor="middle" x="1327" y="326">EntityFactorySquelette</text>
	<line stroke="black" stroke-opacity="1" x1="1263" y1="334" x2="1391" y2="334" />
	<line stroke="black" stroke-opacity="1" x1="1263" y1="342" x2="1391" y2="342" />
</g>
<g>
	<rect fill="#cbcbcb" stroke="none" stroke-opacity="1" x="1536" y="202" width="3" height="61" />
	<rect fill="#cbcbcb" stroke="none" stroke-opacity="1" x="1272" y="260" width="267" height="3" />
	<rect fill="#ffffc0" stroke="black" stroke-width="1" stroke-opacity="1" x="1268" y="198" width="268" height="62" />
	<text font-family="Helvetica" font-size="8" fill="#000000" xml:space="preserve" text-anchor="middle" x="1402" y="208">&lt;&lt;interface&gt;&gt;</text>
	<text font-family="Helvetica" font-size="8" fill="#000000" xml:space="preserve" font-weight="bold" text-anchor="middle" x="1402" y="226">EntityFactory</text>
	<line stroke="black" stroke-opacity="1" x1="1268" y1="234" x2="1536" y2="234" />
	<line stroke="black" stroke-opacity="1" x1="1268" y1="242" x2="1536" y2="242" />
	<text font-family="Helvetica" font-size="8" fill="#000000" xml:space="preserve" font-weight="bold" x="1272" y="252">+</text>
	<text font-family="Helvetica" font-size="8" fill="#000000" xml:space="preserve" x="1284" y="252">buildEntity(name : string, lifepoints : float) : Entity</text>
</g>
<g>
	<rect fill="#cbcbcb" stroke="none" stroke-opacity="1" x="1078" y="350" width="3" height="93" />
	<rect fill="#cbcbcb" stroke="none" stroke-opacity="1" x="862" y="440" width="219" height="3" />
	<rect fill="#ffffc0" stroke="black" stroke-width="1" stroke-opacity="1" x="858" y="346" width="220" height="94" />
	<text font-family="Helvetica" font-size="8" fill="#000000" xml:space="preserve" text-anchor="middle" x="968" y="356">&lt;&lt;interface&gt;&gt;</text>
	<text font-family="Helvetica" font-size="8" fill="#000000" xml:space="preserve" font-weight="bold" text-anchor="middle" x="968" y="374">EquipmentItem</text>
	<line stroke="black" stroke-opacity="1" x1="858" y1="382" x2="1078" y2="382" />
	<line stroke="black" stroke-opacity="1" x1="858" y1="390" x2="1078" y2="390" />
	<text font-family="Helvetica" font-size="8" fill="#000000" xml:space="preserve" font-weight="bold" x="862" y="400">+</text>
	<text font-family="Helvetica" font-size="8" fill="#000000" xml:space="preserve" x="874" y="400">getEquipmentType() : enum</text>
	<text font-family="Helvetica" font-size="8" fill="#000000" xml:space="preserve" font-weight="bold" x="862" y="416">+</text>
	<text font-family="Helvetica" font-size="8" fill="#000000" xml:space="preserve" x="874" y="416">applyEffector(base_stats : Stats) : Stats</text>
	<text font-family="Helvetica" font-size="8" fill="#000000" xml:space="preserve" font-weight="bold" x="862" y="432">+</text>
	<text font-family="Helvetica" font-size="8" fill="#000000" xml:space="preserve" x="874" y="432">getAbilities() : IAbility</text>
</g>
<g>
	<rect fill="#cbcbcb" stroke="none" stroke-opacity="1" x="993" y="22" width="3" height="125" />
	<rect fill="#cbcbcb" stroke="none" stroke-opacity="1" x="801" y="144" width="195" height="3" />
	<rect fill="#ffffc0" stroke="black" stroke-width="1" stroke-opacity="1" x="797" y="18" width="196" height="126" />
	<text font-family="Helvetica" font-size="8" fill="#000000" xml:space="preserve" text-anchor="middle" x="895" y="28">&lt;&lt;interface&gt;&gt;</text>
	<text font-family="Helvetica" font-size="8" fill="#000000" xml:space="preserve" font-weight="bold" text-anchor="middle" x="895" y="46">EntityClass</text>
	<line stroke="black" stroke-opacity="1" x1="797" y1="54" x2="993" y2="54" />
	<line stroke="black" stroke-opacity="1" x1="797" y1="62" x2="993" y2="62" />
	<text font-family="Helvetica" font-size="8" fill="#000000" xml:space="preserve" font-weight="bold" x="801" y="72">+</text>
	<text font-family="Helvetica" font-size="8" fill="#000000" xml:space="preserve" x="813" y="72">applyEffector(parent : Entity) : void</text>
	<text font-family="Helvetica" font-size="8" fill="#000000" xml:space="preserve" font-weight="bold" x="801" y="88">+</text>
	<text font-family="Helvetica" font-size="8" fill="#000000" xml:space="preserve" x="813" y="88">getName() : string</text>
	<text font-family="Helvetica" font-size="8" fill="#000000" xml:space="preserve" font-weight="bold" x="801" y="104">+</text>
	<text font-family="Helvetica" font-size="8" fill="#000000" xml:space="preserve" x="813" y="104">getStats() : Stats</text>
	<text font-family="Helvetica" font-size="8" fill="#000000" xml:space="preserve" font-weight="bold" x="801" y="120">+</text>
	<text font-family="Helvetica" font-size="8" fill="#000000" xml:space="preserve" x="813" y="120">getDescription() : string</text>
	<text font-family="Helvetica" font-size="8" fill="#000000" xml:space="preserve" font-weight="bold" x="801" y="136">+</text>
	<text font-family="Helvetica" font-size="8" fill="#000000" xml:space="preserve" x="813" y="136">getAbilities() : IAbility</text>
</g>
<g>
	<rect fill="#cbcbcb" stroke="none" stroke-opacity="1" x="595" y="518" width="3" height="75" />
	<rect fill="#cbcbcb" stroke="none" stroke-opacity="1" x="399" y="590" width="199" height="3" />
	<rect fill="#ffffc0" stroke="black" stroke-width="1" stroke-opacity="1" x="395" y="514" width="200" height="76" />
	<text font-family="Helvetica" font-size="8" fill="#000000" xml:space="preserve" font-weight="bold" text-anchor="middle" x="495" y="524">PlayerBuilder</text>
	<line stroke="black" stroke-opacity="1" x1="395" y1="532" x2="595" y2="532" />
	<line stroke="black" stroke-opacity="1" x1="395" y1="540" x2="595" y2="540" />
	<text font-family="Helvetica" font-size="8" fill="#000000" xml:space="preserve" font-weight="bold" x="399" y="550">+</text>
	<text font-family="Helvetica" font-size="8" fill="#000000" xml:space="preserve" x="411" y="550">setPlayerName(name : string) : void</text>
	<text font-family="Helvetica" font-size="8" fill="#000000" xml:space="preserve" font-weight="bold" x="399" y="566">+</text>
	<text font-family="Helvetica" font-size="8" fill="#000000" xml:space="preserve" x="411" y="566">setPlayerClass(classe : enum) : void</text>
	<text font-family="Helvetica" font-size="8" fill="#000000" xml:space="preserve" font-weight="bold" x="399" y="582">+</text>
	<text font-family="Helvetica" font-size="8" fill="#000000" xml:space="preserve" x="411" y="582">getPlayerResult() : Player</text>
</g>
<g>
	<rect fill="#cbcbcb" stroke="none" stroke-opacity="1" x="463" y="91" width="3" height="33" />
	<rect fill="#cbcbcb" stroke="none" stroke-opacity="1" x="405" y="121" width="61" height="3" />
	<rect fill="#ffffc0" stroke="black" stroke-width="1" stroke-opacity="1" x="401" y="87" width="62" height="34" />
	<text font-family="Helvetica" font-size="8" fill="#000000" xml:space="preserve" font-weight="bold" text-anchor="middle" x="432" y="97">EntityBlob</text>
	<line stroke="black" stroke-opacity="1" x1="401" y1="105" x2="463" y2="105" />
	<line stroke="black" stroke-opacity="1" x1="401" y1="113" x2="463" y2="113" />
</g>
<g>
	<rect fill="#cbcbcb" stroke="none" stroke-opacity="1" x="1527" y="320" width="3" height="33" />
	<rect fill="#cbcbcb" stroke="none" stroke-opacity="1" x="1429" y="350" width="101" height="3" />
	<rect fill="#ffffc0" stroke="black" stroke-width="1" stroke-opacity="1" x="1425" y="316" width="102" height="34" />
	<text font-family="Helvetica" font-size="8" fill="#000000" xml:space="preserve" font-weight="bold" text-anchor="middle" x="1476" y="326">EntityFactoryBlob</text>
	<line stroke="black" stroke-opacity="1" x1="1425" y1="334" x2="1527" y2="334" />
	<line stroke="black" stroke-opacity="1" x1="1425" y1="342" x2="1527" y2="342" />
</g>
<g>
	<rect fill="#cbcbcb" stroke="none" stroke-opacity="1" x="820" y="341" width="3" height="109" />
	<rect fill="#cbcbcb" stroke="none" stroke-opacity="1" x="676" y="447" width="147" height="3" />
	<rect fill="#ffffc0" stroke="black" stroke-width="1" stroke-opacity="1" x="672" y="337" width="148" height="110" />
	<text font-family="Helvetica" font-size="8" fill="#000000" xml:space="preserve" text-anchor="middle" x="746" y="347">&lt;&lt;interface&gt;&gt;</text>
	<text font-family="Helvetica" font-size="8" fill="#000000" xml:space="preserve" font-weight="bold" text-anchor="middle" x="746" y="365">Item</text>
	<line stroke="black" stroke-opacity="1" x1="672" y1="373" x2="820" y2="373" />
	<line stroke="black" stroke-opacity="1" x1="672" y1="381" x2="820" y2="381" />
	<text font-family="Helvetica" font-size="8" fill="#000000" xml:space="preserve" font-weight="bold" x="676" y="391">+</text>
	<text font-family="Helvetica" font-size="8" fill="#000000" xml:space="preserve" x="688" y="391">use(player : Player) : void</text>
	<text font-family="Helvetica" font-size="8" fill="#000000" xml:space="preserve" font-weight="bold" x="676" y="407">+</text>
	<text font-family="Helvetica" font-size="8" fill="#000000" xml:space="preserve" x="688" y="407">getName() : string</text>
	<text font-family="Helvetica" font-size="8" fill="#000000" xml:space="preserve" font-weight="bold" x="676" y="423">+</text>
	<text font-family="Helvetica" font-size="8" fill="#000000" xml:space="preserve" x="688" y="423">getID() : string</text>
	<text font-family="Helvetica" font-size="8" fill="#000000" xml:space="preserve" font-weight="bold" x="676" y="439">+</text>
	<text font-family="Helvetica" font-size="8" fill="#000000" xml:space="preserve" x="688" y="439">getDescription() : string</text>
</g>
<g>
	<rect fill="#cbcbcb" stroke="none" stroke-opacity="1" x="604" y="627" width="3" height="109" />
	<rect fill="#cbcbcb" stroke="none" stroke-opacity="1" x="388" y="733" width="219" height="3" />
	<rect fill="#ffffc0" stroke="black" stroke-width="1" stroke-opacity="1" x="384" y="623" width="220" height="110" />
	<text font-family="Helvetica" font-size="8" fill="#000000" xml:space="preserve" text-anchor="middle" x="494" y="633">&lt;&lt;interface&gt;&gt;</text>
	<text font-family="Helvetica" font-size="8" fill="#000000" xml:space="preserve" font-weight="bold" text-anchor="middle" x="494" y="651">IAbility</text>
	<line stroke="black" stroke-opacity="1" x1="384" y1="659" x2="604" y2="659" />
	<line stroke="black" stroke-opacity="1" x1="384" y1="667" x2="604" y2="667" />
	<text font-family="Helvetica" font-size="8" fill="#000000" xml:space="preserve" font-weight="bold" x="388" y="677">+</text>
	<text font-family="Helvetica" font-size="8" fill="#000000" xml:space="preserve" x="400" y="677">getName() : string</text>
	<text font-family="Helvetica" font-size="8" fill="#000000" xml:space="preserve" font-weight="bold" x="388" y="693">+</text>
	<text font-family="Helvetica" font-size="8" fill="#000000" xml:space="preserve" x="400" y="693">canExecuteAbility(player : Player) : bool</text>
	<text font-family="Helvetica" font-size="8" fill="#000000" xml:space="preserve" font-weight="bold" x="388" y="709">+</text>
	<text font-family="Helvetica" font-size="8" fill="#000000" xml:space="preserve" x="400" y="709">getRawDamage() : float</text>
	<text font-family="Helvetica" font-size="8" fill="#000000" xml:space="preserve" font-weight="bold" x="388" y="725">+</text>
	<text font-family="Helvetica" font-size="8" fill="#000000" xml:space="preserve" x="400" y="725">getDescription() : string</text>
</g>
<g>
	<line stroke="#000000" stroke-opacity="1" x1="1463" y1="315" x2="1430" y2="268" />
	<line stroke="#000000" stroke-opacity="1" x1="1427" y1="264" x2="1425" y2="272" />
	<line stroke="#000000" stroke-opacity="1" x1="1427" y1="264" x2="1435" y2="265" />
	<line stroke="#000000" stroke-opacity="1" x1="1425" y1="272" x2="1435" y2="265" />
</g>
<g>
	<line stroke="black" stroke-opacity="1" x1="498" y1="441" x2="491" y2="446" />
	<line stroke="black" stroke-opacity="1" x1="498" y1="441" x2="503" y2="447" />
	<line stroke-dasharray="4,4" stroke="black" stroke-opacity="1" x1="497" y1="513" x2="498" y2="441" />
</g>
<g>
	<line stroke="black" stroke-opacity="1" x1="969" y1="444" x2="967" y2="680" />
</g>
<g>
	<line stroke="black" stroke-opacity="1" x1="608" y1="680" x2="614" y2="686" />
	<line stroke="black" stroke-opacity="1" x1="608" y1="680" x2="614" y2="674" />
	<line stroke="black" stroke-opacity="1" x1="967" y1="680" x2="608" y2="680" />
</g>
<g>
	<line stroke="black" stroke-opacity="1" x1="997" y1="83" x2="1174" y2="83" />
</g>
<g>
	<line stroke="black" stroke-opacity="1" x1="1174" y1="83" x2="1173" y2="718" />
</g>
<g>
	<line stroke="black" stroke-opacity="1" x1="608" y1="718" x2="614" y2="724" />
	<line stroke="black" stroke-opacity="1" x1="608" y1="718" x2="614" y2="712" />
	<line stroke="black" stroke-opacity="1" x1="1173" y1="718" x2="608" y2="718" />
</g>
<g>
	<line stroke="black" stroke-opacity="1" x1="671" y1="345" x2="668" y2="336" />
	<line stroke="black" stroke-opacity="1" x1="671" y1="345" x2="662" y2="347" />
	<line stroke="black" stroke-opacity="1" x1="630" y1="321" x2="671" y2="345" />
</g>
<g>
	<line stroke="black" stroke-opacity="1" x1="877" y1="195" x2="881" y2="187" />
	<line stroke="black" stroke-opacity="1" x1="877" y1="195" x2="869" y2="190" />
	<line stroke="black" stroke-opacity="1" x1="863" y1="148" x2="877" y2="195" />
</g>
<g>
	<line stroke="#000000" stroke-opacity="1" x1="1068" y1="528" x2="990" y2="448" />
	<line stroke="#000000" stroke-opacity="1" x1="986" y1="444" x2="985" y2="452" />
	<line stroke="#000000" stroke-opacity="1" x1="986" y1="444" x2="994" y2="444" />
	<line stroke="#000000" stroke-opacity="1" x1="985" y1="452" x2="994" y2="444" />
</g>
<g>
	<line stroke="black" stroke-opacity="1" x1="834" y1="236" x2="828" y2="230" />
	<line stroke="black" stroke-opacity="1" x1="834" y1="236" x2="828" y2="242" />
	<line stroke="black" stroke-opacity="1" x1="630" y1="236" x2="834" y2="236" />
</g>
<g>
	<line stroke="black" stroke-opacity="1" x1="605" y1="141" x2="598" y2="88" />
</g>
<g>
	<line stroke="black" stroke-opacity="1" x1="796" y1="88" x2="790" y2="82" />
	<line stroke="black" stroke-opacity="1" x1="796" y1="88" x2="790" y2="94" />
	<line stroke="black" stroke-opacity="1" x1="598" y1="88" x2="796" y2="88" />
</g>
<g>
	<line stroke="#000000" stroke-opacity="1" x1="1341" y1="315" x2="1373" y2="268" />
	<line stroke="#000000" stroke-opacity="1" x1="1377" y1="264" x2="1368" y2="265" />
	<line stroke="#000000" stroke-opacity="1" x1="1377" y1="264" x2="1378" y2="272" />
	<line stroke="#000000" stroke-opacity="1" x1="1368" y1="265" x2="1378" y2="272" />
</g>
<g>
	<line stroke-dasharray="4,4" stroke="#000000" stroke-opacity="1" x1="857" y1="394" x2="830" y2="394" />
	<line stroke="#000000" stroke-opacity="1" x1="824" y1="394" x2="830" y2="400" />
	<line stroke="#000000" stroke-opacity="1" x1="824" y1="394" x2="830" y2="388" />
	<line stroke="#000000" stroke-opacity="1" x1="830" y1="400" x2="830" y2="388" />
</g>
<g>
	<line stroke="#000000" stroke-opacity="1" x1="500" y1="350" x2="500" y2="350" />
	<line stroke="#000000" stroke-opacity="1" x1="500" y1="344" x2="494" y2="350" />
	<line stroke="#000000" stroke-opacity="1" x1="500" y1="344" x2="506" y2="350" />
	<line stroke="#000000" stroke-opacity="1" x1="494" y1="350" x2="506" y2="350" />
</g>
<g>
	<line stroke="black" stroke-opacity="1" x1="598" y1="394" x2="604" y2="400" />
	<line stroke="black" stroke-opacity="1" x1="598" y1="394" x2="604" y2="388" />
	<line stroke="black" stroke-opacity="1" x1="671" y1="394" x2="598" y2="394" />
</g>
<g>
	<line stroke="#000000" stroke-opacity="1" x1="443" y1="125" x2="445" y2="135" />
	<line stroke="#000000" stroke-opacity="1" x1="447" y1="141" x2="451" y2="133" />
	<line stroke="#000000" stroke-opacity="1" x1="447" y1="141" x2="439" y2="136" />
	<line stroke="#000000" stroke-opacity="1" x1="451" y1="133" x2="439" y2="136" />
</g>
<g>
	<line stroke="#000000" stroke-opacity="1" x1="530" y1="126" x2="532" y2="135" />
	<line stroke="#000000" stroke-opacity="1" x1="534" y1="141" x2="538" y2="133" />
	<line stroke="#000000" stroke-opacity="1" x1="534" y1="141" x2="526" y2="136" />
	<line stroke="#000000" stroke-opacity="1" x1="538" y1="133" x2="526" y2="136" />
</g>
<g>
	<line stroke="black" stroke-opacity="1" x1="902" y1="276" x2="899" y2="284" />
	<line stroke="black" stroke-opacity="1" x1="902" y1="276" x2="910" y2="278" />
	<line stroke="black" stroke-opacity="1" x1="941" y1="345" x2="902" y2="276" />
</g>
<g>
	<line stroke="black" stroke-opacity="1" x1="369" y1="227" x2="282" y2="218" />
</g>
<g>
	<line stroke="black" stroke-opacity="1" x1="282" y1="218" x2="282" y2="677" />
</g>
<g>
	<line stroke="black" stroke-opacity="1" x1="383" y1="677" x2="377" y2="671" />
	<line stroke="black" stroke-opacity="1" x1="383" y1="677" x2="377" y2="683" />
	<line stroke="black" stroke-opacity="1" x1="282" y1="677" x2="383" y2="677" />
</g>
<g>
	<text font-family="Helvetica" font-size="8" fill="#000000" xml:space="preserve" x="610" y="672">grants</text>
</g>
<g>
	<text font-family="Helvetica" font-size="8" fill="#000000" xml:space="preserve" x="610" y="694">1</text>
</g>
<g>
	<text font-family="Helvetica" font-size="8" fill="#000000" xml:space="preserve" x="610" y="708">specials</text>
</g>
<g>
	<text font-family="Helvetica" font-size="8" fill="#000000" xml:space="preserve" x="610" y="733">*</text>
</g>
<g>
	<text font-family="Helvetica" font-size="8" fill="#000000" xml:space="preserve" x="653" y="325">&lt;&lt;map&gt;&gt;</text>
</g>
<g>
	<text font-family="Helvetica" font-size="8" fill="#000000" xml:space="preserve" x="608" y="344">drop_rates</text>
</g>
<g>
	<text font-family="Helvetica" font-size="8" fill="#000000" xml:space="preserve" x="657" y="366">*</text>
</g>
<g>
	<text font-family="Helvetica" font-size="8" fill="#000000" xml:space="preserve" x="884" y="187">effector</text>
</g>
<g>
	<text font-family="Helvetica" font-size="8" fill="#000000" xml:space="preserve" x="818" y="250">1</text>
</g>
<g>
	<text font-family="Helvetica" font-size="8" fill="#000000" xml:space="preserve" x="754" y="80">classe</text>
</g>
<g>
	<text font-family="Helvetica" font-size="8" fill="#000000" xml:space="preserve" x="780" y="102">1</text>
</g>
<g>
	<text font-family="Helvetica" font-size="8" fill="#000000" xml:space="preserve" x="600" y="408">0..1</text>
</g>
<g>
	<text font-family="Helvetica" font-size="8" fill="#000000" xml:space="preserve" x="800" y="228">stats</text>
</g>
<g>
	<text font-family="Helvetica" font-size="8" fill="#000000" xml:space="preserve" x="858" y="187">1</text>
</g>
<g>
	<text font-family="Helvetica" font-size="8" fill="#000000" xml:space="preserve" x="912" y="290">effects</text>
</g>
<g>
	<text font-family="Helvetica" font-size="8" fill="#000000" xml:space="preserve" x="886" y="290">1</text>
</g>
<g>
	<text font-family="Helvetica" font-size="8" fill="#000000" xml:space="preserve" x="338" y="667">abilities</text>
</g>
<g>
	<text font-family="Helvetica" font-size="8" fill="#000000" xml:space="preserve" x="369" y="692">*</text>
</g>
<g>
	<text font-family="Helvetica" font-size="8" fill="#000000" xml:space="preserve" x="601" y="372">&lt;&lt;map&gt;&gt;</text>
</g>
<g>
	<text font-family="Helvetica" font-size="8" fill="#000000" xml:space="preserve" x="600" y="386">inventory</text>
</g>
</svg>
